# Blender v2.79 (sub 0) OBJ File: 'shield.blend'
# www.blender.org
mtllib shield.mtl
o wout.002_Plane.017
v 0.244613 0.171018 0.057405
v 0.228694 0.109308 0.057405
v 0.320969 0.082891 0.057405
v 0.234634 -0.230884 0.057405
v 0.178854 -0.339506 0.057405
v 0.228694 0.109308 0.266565
v 0.244613 0.171018 0.266565
v 0.320969 0.082891 0.266565
v 0.234634 -0.230884 0.266565
v 0.178854 -0.339506 0.266565
v 0.244868 0.174851 0.057405
v 0.244868 0.174851 0.266565
v 0.000000 -0.454161 0.057405
v -0.244613 0.171018 0.057405
v 0.000000 0.187290 0.057405
v -0.228694 0.109308 0.057405
v -0.320969 0.082891 0.057405
v -0.234634 -0.230884 0.057405
v -0.178854 -0.339506 0.057405
v 0.000000 -0.454161 0.266565
v -0.228694 0.109308 0.266565
v -0.244613 0.171018 0.266565
v 0.000000 0.187290 0.266565
v -0.320969 0.082891 0.266565
v -0.234634 -0.230884 0.266565
v -0.178854 -0.339506 0.266565
v -0.244868 0.174851 0.057405
v 0.000000 0.191123 0.057405
v -0.244868 0.174851 0.266565
v 0.000000 0.191123 0.266565
v 0.235414 0.172497 0.062084
v 0.219645 0.104129 0.057405
v 0.311879 0.077786 0.057405
v 0.224919 -0.227100 0.057405
v 0.171138 -0.332494 0.057405
v 0.219645 0.104130 0.266565
v 0.235414 0.172497 0.261887
v 0.311879 0.077786 0.266565
v 0.224919 -0.227100 0.266565
v 0.171138 -0.332494 0.266565
v 0.238463 0.169244 0.063425
v 0.238463 0.169244 0.260546
v 0.000000 -0.443735 0.057405
v -0.235414 0.172497 0.062084
v 0.000000 0.187290 0.067831
v -0.219645 0.104129 0.057405
v -0.311879 0.077786 0.057405
v -0.224919 -0.227100 0.057405
v -0.171138 -0.332494 0.057405
v 0.000000 -0.443736 0.266565
v -0.219645 0.104130 0.266565
v -0.235414 0.172497 0.261887
v 0.000000 0.187290 0.256140
v -0.311879 0.077786 0.266565
v -0.224919 -0.227100 0.266565
v -0.171138 -0.332494 0.266565
v -0.238463 0.169244 0.063425
v 0.000000 0.183601 0.064625
v -0.238463 0.169244 0.260546
v 0.000000 0.183601 0.259346
vn 0.5397 -0.8419 0.0000
vn 0.8896 -0.4568 0.0000
vn 0.9642 -0.2653 0.0000
vn 0.2752 0.9614 0.0000
vn 0.9683 -0.2498 0.0000
vn 0.0000 0.0000 -1.0000
vn 0.0663 0.9978 0.0000
vn 0.9978 -0.0664 0.0000
vn 0.0000 0.0000 1.0000
vn -0.5397 -0.8419 0.0000
vn -0.8896 -0.4568 0.0000
vn -0.9642 -0.2653 0.0000
vn -0.2752 0.9614 0.0000
vn -0.9683 -0.2498 0.0000
vn -0.0663 0.9978 0.0000
vn -0.9978 -0.0664 0.0000
vn -0.5450 0.8384 0.0000
vn -0.8907 0.4545 0.0000
vn -0.9616 0.2743 0.0000
vn -0.2746 -0.9615 0.0000
vn -0.9744 0.2247 -0.0000
vn 0.0019 0.2603 -0.9655
vn -0.0601 -0.9982 0.0000
vn 0.7297 0.6838 0.0000
vn 0.0019 0.2603 0.9655
vn 0.5450 0.8384 0.0000
vn 0.8907 0.4545 0.0000
vn 0.9616 0.2743 0.0000
vn 0.2746 -0.9615 0.0000
vn 0.9744 0.2247 -0.0000
vn -0.0019 0.2603 -0.9655
vn 0.0601 -0.9982 0.0000
vn -0.7297 0.6838 0.0000
vn -0.0019 0.2603 0.9655
vn -0.2660 0.0993 -0.9589
vn -0.0638 -0.9962 0.0587
vn -0.2660 0.0993 0.9589
vn -0.0638 -0.9962 -0.0587
vn 0.2660 0.0993 -0.9589
vn 0.0638 -0.9962 0.0587
vn 0.2660 0.0993 0.9589
vn 0.0638 -0.9962 -0.0587
usemtl Material.003
s off
f 13//1 5//1 10//1 20//1
f 5//2 4//2 9//2 10//2
f 4//3 3//3 8//3 9//3
f 3//4 2//4 6//4 8//4
f 2//5 1//5 7//5 6//5
f 1//6 15//6 28//6 11//6
f 11//7 28//7 30//7 12//7
f 7//8 1//8 11//8 12//8
f 23//9 7//9 12//9 30//9
f 13//10 20//10 26//10 19//10
f 19//11 26//11 25//11 18//11
f 18//12 25//12 24//12 17//12
f 17//13 24//13 21//13 16//13
f 16//14 21//14 22//14 14//14
f 14//6 27//6 28//6 15//6
f 27//15 29//15 30//15 28//15
f 22//16 29//16 27//16 14//16
f 23//9 30//9 29//9 22//9
f 43//17 50//17 40//17 35//17
f 35//18 40//18 39//18 34//18
f 34//19 39//19 38//19 33//19
f 33//20 38//20 36//20 32//20
f 32//21 36//21 37//21 31//21
f 31//22 41//22 58//22 45//22
f 41//23 42//23 60//23 58//23
f 37//24 42//24 41//24 31//24
f 53//25 60//25 42//25 37//25
f 43//26 49//26 56//26 50//26
f 49//27 48//27 55//27 56//27
f 48//28 47//28 54//28 55//28
f 47//29 46//29 51//29 54//29
f 46//30 44//30 52//30 51//30
f 44//31 45//31 58//31 57//31
f 57//32 58//32 60//32 59//32
f 52//33 44//33 57//33 59//33
f 53//34 52//34 59//34 60//34
f 1//35 2//35 32//35 31//35
f 15//36 1//36 31//36 45//36
f 2//6 3//6 33//6 32//6
f 3//6 4//6 34//6 33//6
f 4//6 5//6 35//6 34//6
f 5//6 13//6 43//6 35//6
f 6//37 7//37 37//37 36//37
f 7//38 23//38 53//38 37//38
f 8//9 6//9 36//9 38//9
f 9//9 8//9 38//9 39//9
f 10//9 9//9 39//9 40//9
f 20//9 10//9 40//9 50//9
f 16//39 14//39 44//39 46//39
f 14//40 15//40 45//40 44//40
f 17//6 16//6 46//6 47//6
f 18//6 17//6 47//6 48//6
f 19//6 18//6 48//6 49//6
f 13//6 19//6 49//6 43//6
f 22//41 21//41 51//41 52//41
f 23//42 22//42 52//42 53//42
f 21//9 24//9 54//9 51//9
f 24//9 25//9 55//9 54//9
f 25//9 26//9 56//9 55//9
f 26//9 20//9 50//9 56//9
o wout.001_Plane.016
v 0.300062 0.245209 -0.003506
v 0.280535 0.169510 -0.003506
v 0.393726 0.137105 -0.003506
v 0.287821 -0.247797 -0.003506
v 0.219397 -0.381041 -0.003506
v 0.280535 0.169510 0.253066
v 0.300062 0.245209 0.253066
v 0.393726 0.137105 0.253066
v 0.287821 -0.247797 0.253066
v 0.219397 -0.381041 0.253066
v 0.300375 0.249911 -0.003506
v 0.300375 0.249911 0.253066
v 0.000000 -0.521687 -0.003506
v -0.300062 0.245209 -0.003506
v 0.000000 0.265169 -0.003506
v -0.280535 0.169510 -0.003506
v -0.393726 0.137105 -0.003506
v -0.287821 -0.247797 -0.003506
v -0.219397 -0.381041 -0.003506
v 0.000000 -0.521687 0.253066
v -0.280535 0.169510 0.253066
v -0.300062 0.245209 0.253066
v 0.000000 0.265169 0.253066
v -0.393726 0.137105 0.253066
v -0.287821 -0.247797 0.253066
v -0.219397 -0.381041 0.253066
v -0.300375 0.249911 -0.003506
v 0.000000 0.269871 -0.003506
v -0.300375 0.249911 0.253066
v 0.000000 0.269871 0.253066
v 0.296838 0.245727 -0.001867
v 0.277363 0.167695 -0.003506
v 0.390540 0.135316 -0.003506
v 0.284416 -0.246471 -0.003506
v 0.216692 -0.378583 -0.003506
v 0.277363 0.167695 0.253066
v 0.296838 0.245727 0.251426
v 0.390540 0.135316 0.253066
v 0.284416 -0.246471 0.253066
v 0.216692 -0.378583 0.253066
v 0.298130 0.247946 -0.001397
v 0.298130 0.247946 0.250957
v 0.000000 -0.518032 -0.003506
v -0.296838 0.245727 -0.001867
v 0.000000 0.265169 0.000148
v -0.277363 0.167695 -0.003506
v -0.390540 0.135316 -0.003506
v -0.284416 -0.246471 -0.003506
v -0.216692 -0.378583 -0.003506
v 0.000000 -0.518033 0.253066
v -0.277363 0.167695 0.253066
v -0.296838 0.245727 0.251426
v 0.000000 0.265169 0.249412
v -0.390540 0.135316 0.253066
v -0.284416 -0.246471 0.253066
v -0.216692 -0.378583 0.253066
v -0.298130 0.247946 -0.001397
v 0.000000 0.267234 -0.000976
v -0.298130 0.247946 0.250957
v 0.000000 0.267234 0.250536
vn 0.5397 -0.8419 0.0000
vn 0.8896 -0.4568 0.0000
vn 0.9642 -0.2653 0.0000
vn 0.2752 0.9614 0.0000
vn 0.9683 -0.2498 0.0000
vn -0.0000 0.0000 -1.0000
vn 0.0663 0.9978 0.0000
vn 0.9978 -0.0664 0.0000
vn 0.0000 0.0000 1.0000
vn -0.5397 -0.8419 0.0000
vn -0.8896 -0.4568 0.0000
vn -0.9642 -0.2653 0.0000
vn -0.2752 0.9614 0.0000
vn -0.9683 -0.2498 0.0000
vn -0.0663 0.9978 0.0000
vn -0.9978 -0.0664 0.0000
vn -0.5412 0.8409 0.0000
vn -0.8899 0.4562 -0.0000
vn -0.9635 0.2678 -0.0000
vn -0.2751 -0.9614 0.0000
vn -0.9702 0.2421 0.0000
vn 0.0136 0.1469 0.9891
vn -0.0646 -0.9979 0.0000
vn -0.8642 0.5032 0.0000
vn 0.0136 0.1469 -0.9891
vn 0.5412 0.8409 0.0000
vn 0.8899 0.4562 -0.0000
vn 0.9635 0.2678 -0.0000
vn 0.2751 -0.9614 0.0000
vn 0.9702 0.2421 0.0000
vn -0.0136 0.1469 0.9891
vn 0.0646 -0.9979 0.0000
vn 0.8642 0.5032 0.0000
vn -0.0136 0.1469 -0.9891
vn -0.2622 0.0768 -0.9620
vn -0.0656 -0.9962 0.0576
vn -0.2622 0.0768 0.9620
vn -0.0656 -0.9962 -0.0576
vn 0.2622 0.0768 -0.9620
vn 0.0656 -0.9962 0.0576
vn 0.2622 0.0768 0.9620
vn 0.0656 -0.9962 -0.0576
usemtl Material.003
s off
f 73//43 65//43 70//43 80//43
f 65//44 64//44 69//44 70//44
f 64//45 63//45 68//45 69//45
f 63//46 62//46 66//46 68//46
f 62//47 61//47 67//47 66//47
f 61//48 75//48 88//48 71//48
f 71//49 88//49 90//49 72//49
f 67//50 61//50 71//50 72//50
f 83//51 67//51 72//51 90//51
f 73//52 80//52 86//52 79//52
f 79//53 86//53 85//53 78//53
f 78//54 85//54 84//54 77//54
f 77//55 84//55 81//55 76//55
f 76//56 81//56 82//56 74//56
f 74//48 87//48 88//48 75//48
f 87//57 89//57 90//57 88//57
f 82//58 89//58 87//58 74//58
f 83//51 90//51 89//51 82//51
f 103//59 110//59 100//59 95//59
f 95//60 100//60 99//60 94//60
f 94//61 99//61 98//61 93//61
f 93//62 98//62 96//62 92//62
f 92//63 96//63 97//63 91//63
f 91//64 101//64 118//64 105//64
f 101//65 102//65 120//65 118//65
f 97//66 102//66 101//66 91//66
f 113//67 120//67 102//67 97//67
f 103//68 109//68 116//68 110//68
f 109//69 108//69 115//69 116//69
f 108//70 107//70 114//70 115//70
f 107//71 106//71 111//71 114//71
f 106//72 104//72 112//72 111//72
f 104//73 105//73 118//73 117//73
f 117//74 118//74 120//74 119//74
f 112//75 104//75 117//75 119//75
f 113//76 112//76 119//76 120//76
f 61//77 62//77 92//77 91//77
f 75//78 61//78 91//78 105//78
f 62//48 63//48 93//48 92//48
f 63//48 64//48 94//48 93//48
f 64//48 65//48 95//48 94//48
f 65//48 73//48 103//48 95//48
f 66//79 67//79 97//79 96//79
f 67//80 83//80 113//80 97//80
f 68//51 66//51 96//51 98//51
f 69//51 68//51 98//51 99//51
f 70//51 69//51 99//51 100//51
f 80//51 70//51 100//51 110//51
f 76//81 74//81 104//81 106//81
f 74//82 75//82 105//82 104//82
f 77//48 76//48 106//48 107//48
f 78//48 77//48 107//48 108//48
f 79//48 78//48 108//48 109//48
f 73//48 79//48 109//48 103//48
f 82//83 81//83 111//83 112//83
f 83//84 82//84 112//84 113//84
f 81//51 84//51 114//51 111//51
f 84//51 85//51 115//51 114//51
f 85//51 86//51 116//51 115//51
f 86//51 80//51 110//51 116//51
o wout_Plane.015
v 0.322789 0.275618 -0.030972
v 0.301783 0.194185 -0.030972
v 0.423548 0.159326 -0.030972
v 0.309621 -0.254729 -0.030972
v 0.236014 -0.398065 -0.030972
v 0.301783 0.194185 0.245034
v 0.322789 0.275618 0.245034
v 0.423548 0.159326 0.245034
v 0.309621 -0.254729 0.245034
v 0.236014 -0.398065 0.245034
v 0.323126 0.280676 -0.030972
v 0.323126 0.280676 0.245034
v 0.000000 -0.549364 -0.030972
v -0.322789 0.275618 -0.030972
v 0.000000 0.297090 -0.030972
v -0.301783 0.194185 -0.030972
v -0.423548 0.159326 -0.030972
v -0.309621 -0.254729 -0.030972
v -0.236014 -0.398065 -0.030972
v 0.000000 -0.549364 0.245034
v -0.301783 0.194185 0.245034
v -0.322789 0.275618 0.245034
v 0.000000 0.297090 0.245034
v -0.423548 0.159326 0.245034
v -0.309621 -0.254729 0.245034
v -0.236014 -0.398065 0.245034
v -0.323126 0.280676 -0.030972
v 0.000000 0.302148 -0.030972
v -0.323126 0.280676 0.245034
v 0.000000 0.302148 0.245034
v 0.319321 0.276176 -0.029208
v 0.298371 0.192233 -0.030972
v 0.420121 0.157401 -0.030972
v 0.305958 -0.253302 -0.030972
v 0.233105 -0.395421 -0.030972
v 0.298371 0.192233 0.245034
v 0.319321 0.276176 0.243270
v 0.420121 0.157401 0.245034
v 0.305958 -0.253302 0.245034
v 0.233105 -0.395421 0.245034
v 0.320711 0.278562 -0.028703
v 0.320711 0.278562 0.242764
v 0.000000 -0.545433 -0.030972
v -0.319321 0.276176 -0.029208
v 0.000000 0.297090 -0.027041
v -0.298371 0.192233 -0.030972
v -0.420121 0.157401 -0.030972
v -0.305958 -0.253302 -0.030972
v -0.233105 -0.395421 -0.030972
v 0.000000 -0.545433 0.245034
v -0.298371 0.192233 0.245034
v -0.319321 0.276176 0.243270
v 0.000000 0.297090 0.241103
v -0.420121 0.157401 0.245034
v -0.305958 -0.253302 0.245034
v -0.233105 -0.395421 0.245034
v -0.320711 0.278562 -0.028703
v 0.000000 0.299312 -0.028250
v -0.320711 0.278562 0.242764
v 0.000000 0.299312 0.242312
vn 0.5397 -0.8419 0.0000
vn 0.8896 -0.4568 0.0000
vn 0.9642 -0.2653 0.0000
vn 0.2752 0.9614 -0.0000
vn 0.9683 -0.2498 0.0000
vn 0.0000 0.0000 -1.0000
vn 0.0663 0.9978 0.0000
vn 0.9978 -0.0664 0.0000
vn 0.0000 0.0000 1.0000
vn -0.5397 -0.8419 0.0000
vn -0.8896 -0.4568 0.0000
vn -0.9642 -0.2653 0.0000
vn -0.2752 0.9614 -0.0000
vn -0.9683 -0.2498 0.0000
vn -0.0663 0.9978 0.0000
vn -0.9978 -0.0664 0.0000
vn -0.5412 0.8409 0.0000
vn -0.8899 0.4562 0.0000
vn -0.9635 0.2678 -0.0000
vn -0.2751 -0.9614 0.0000
vn -0.9702 0.2421 0.0000
vn 0.0136 0.1469 0.9891
vn -0.0646 -0.9979 0.0000
vn -0.8642 0.5032 0.0000
vn 0.0136 0.1469 -0.9891
vn 0.5412 0.8409 0.0000
vn 0.8899 0.4562 0.0000
vn 0.9635 0.2678 -0.0000
vn 0.2751 -0.9614 0.0000
vn 0.9702 0.2421 0.0000
vn -0.0136 0.1469 0.9891
vn 0.0646 -0.9979 0.0000
vn 0.8642 0.5032 0.0000
vn -0.0136 0.1469 -0.9891
vn -0.2622 0.0768 -0.9620
vn -0.0656 -0.9962 0.0576
vn -0.2622 0.0768 0.9620
vn -0.0656 -0.9962 -0.0576
vn 0.2622 0.0768 -0.9620
vn 0.0656 -0.9962 0.0576
vn 0.2622 0.0768 0.9620
vn 0.0656 -0.9962 -0.0576
usemtl Material.003
s off
f 133//85 125//85 130//85 140//85
f 125//86 124//86 129//86 130//86
f 124//87 123//87 128//87 129//87
f 123//88 122//88 126//88 128//88
f 122//89 121//89 127//89 126//89
f 121//90 135//90 148//90 131//90
f 131//91 148//91 150//91 132//91
f 127//92 121//92 131//92 132//92
f 143//93 127//93 132//93 150//93
f 133//94 140//94 146//94 139//94
f 139//95 146//95 145//95 138//95
f 138//96 145//96 144//96 137//96
f 137//97 144//97 141//97 136//97
f 136//98 141//98 142//98 134//98
f 134//90 147//90 148//90 135//90
f 147//99 149//99 150//99 148//99
f 142//100 149//100 147//100 134//100
f 143//93 150//93 149//93 142//93
f 163//101 170//101 160//101 155//101
f 155//102 160//102 159//102 154//102
f 154//103 159//103 158//103 153//103
f 153//104 158//104 156//104 152//104
f 152//105 156//105 157//105 151//105
f 151//106 161//106 178//106 165//106
f 161//107 162//107 180//107 178//107
f 157//108 162//108 161//108 151//108
f 173//109 180//109 162//109 157//109
f 163//110 169//110 176//110 170//110
f 169//111 168//111 175//111 176//111
f 168//112 167//112 174//112 175//112
f 167//113 166//113 171//113 174//113
f 166//114 164//114 172//114 171//114
f 164//115 165//115 178//115 177//115
f 177//116 178//116 180//116 179//116
f 172//117 164//117 177//117 179//117
f 173//118 172//118 179//118 180//118
f 121//119 122//119 152//119 151//119
f 135//120 121//120 151//120 165//120
f 122//90 123//90 153//90 152//90
f 123//90 124//90 154//90 153//90
f 124//90 125//90 155//90 154//90
f 125//90 133//90 163//90 155//90
f 126//121 127//121 157//121 156//121
f 127//122 143//122 173//122 157//122
f 128//93 126//93 156//93 158//93
f 129//93 128//93 158//93 159//93
f 130//93 129//93 159//93 160//93
f 140//93 130//93 160//93 170//93
f 136//123 134//123 164//123 166//123
f 134//124 135//124 165//124 164//124
f 137//90 136//90 166//90 167//90
f 138//90 137//90 167//90 168//90
f 139//90 138//90 168//90 169//90
f 133//90 139//90 169//90 163//90
f 142//125 141//125 171//125 172//125
f 143//126 142//126 172//126 173//126
f 141//93 144//93 174//93 171//93
f 144//93 145//93 175//93 174//93
f 145//93 146//93 176//93 175//93
f 146//93 140//93 170//93 176//93
o wIn_Plane.014
v 0.242870 0.168687 0.053928
v 0.227065 0.107416 0.053928
v 0.318682 0.081187 0.053928
v 0.232963 -0.230353 0.053928
v 0.177580 -0.338200 0.053928
v 0.227065 0.107416 0.261598
v 0.242870 0.168687 0.261598
v 0.318682 0.081187 0.261598
v 0.232963 -0.230353 0.261598
v 0.177580 -0.338200 0.261598
v 0.000000 -0.452039 0.053928
v -0.242870 0.168687 0.053928
v 0.000000 -0.452039 0.053928
v 0.000000 0.184842 0.053928
v -0.227065 0.107416 0.053928
v 0.000000 0.109371 0.053928
v -0.318682 0.081187 0.053928
v 0.000000 0.040336 0.053928
v -0.232963 -0.230353 0.053928
v 0.000000 -0.231204 0.053928
v -0.177580 -0.338200 0.053928
v 0.000000 -0.338637 0.053928
v 0.000000 -0.452039 0.261598
v 0.000000 -0.452039 0.261598
v -0.227065 0.107416 0.261598
v -0.242870 0.168687 0.261598
v 0.000000 0.184842 0.261598
v 0.000000 0.109371 0.261598
v -0.318682 0.081187 0.261598
v 0.000000 0.040336 0.261598
v -0.232963 -0.230353 0.261598
v 0.000000 -0.231204 0.261598
v -0.177580 -0.338200 0.261598
v 0.000000 -0.338637 0.261598
vn 0.0000 0.0000 -1.0000
vn 0.0000 0.0000 1.0000
vn 0.5397 -0.8419 0.0000
vn 0.8896 -0.4568 0.0000
vn 0.9642 -0.2653 0.0000
vn 0.2752 0.9614 -0.0000
vn 0.9683 -0.2498 0.0000
vn 0.0664 0.9978 0.0000
vn -0.5397 -0.8419 0.0000
vn -0.8896 -0.4568 0.0000
vn -0.9642 -0.2653 0.0000
vn -0.2752 0.9614 -0.0000
vn -0.9683 -0.2498 0.0000
vn -0.0664 0.9978 0.0000
usemtl Material.002
s off
f 196//127 194//127 181//127 182//127
f 198//127 196//127 182//127 183//127
f 200//127 198//127 183//127 184//127
f 202//127 200//127 184//127 185//127
f 193//127 202//127 185//127 191//127
f 208//128 186//128 187//128 207//128
f 210//128 188//128 186//128 208//128
f 212//128 189//128 188//128 210//128
f 214//128 190//128 189//128 212//128
f 203//128 204//128 190//128 214//128
f 191//129 185//129 190//129 204//129
f 185//130 184//130 189//130 190//130
f 184//131 183//131 188//131 189//131
f 183//132 182//132 186//132 188//132
f 182//133 181//133 187//133 186//133
f 181//134 194//134 207//134 187//134
f 196//127 195//127 192//127 194//127
f 198//127 197//127 195//127 196//127
f 200//127 199//127 197//127 198//127
f 202//127 201//127 199//127 200//127
f 193//127 191//127 201//127 202//127
f 208//128 207//128 206//128 205//128
f 210//128 208//128 205//128 209//128
f 212//128 210//128 209//128 211//128
f 214//128 212//128 211//128 213//128
f 203//128 214//128 213//128 204//128
f 191//135 204//135 213//135 201//135
f 201//136 213//136 211//136 199//136
f 199//137 211//137 209//137 197//137
f 197//138 209//138 205//138 195//138
f 195//139 205//139 206//139 192//139
f 192//140 206//140 207//140 194//140
o black_Plane.013
v 0.318395 0.269738 -0.030972
v 0.297675 0.189414 -0.030972
v 0.417782 0.155030 -0.030972
v 0.305406 -0.253389 -0.030972
v 0.232801 -0.394773 -0.030972
v 0.297675 0.189414 0.241276
v 0.318395 0.269738 0.241276
v 0.417782 0.155030 0.241276
v 0.305406 -0.253389 0.241276
v 0.232801 -0.394773 0.241276
v 0.000000 -0.544012 -0.030972
v -0.318395 0.269738 -0.030972
v 0.000000 -0.544012 -0.030972
v 0.000000 0.290918 -0.030972
v -0.297675 0.189414 -0.030972
v 0.000000 0.191977 -0.030972
v -0.417782 0.155030 -0.030972
v 0.000000 0.101475 -0.030972
v -0.305406 -0.253389 -0.030972
v 0.000000 -0.254504 -0.030972
v -0.232801 -0.394773 -0.030972
v 0.000000 -0.395346 -0.030972
v 0.000000 -0.544012 0.241276
v 0.000000 -0.544012 0.241276
v -0.297675 0.189414 0.241276
v -0.318395 0.269738 0.241276
v 0.000000 0.290918 0.241276
v 0.000000 0.191977 0.241276
v -0.417782 0.155030 0.241276
v 0.000000 0.101475 0.241276
v -0.305406 -0.253389 0.241276
v 0.000000 -0.254504 0.241276
v -0.232801 -0.394773 0.241276
v 0.000000 -0.395346 0.241276
vn 0.0000 0.0000 -1.0000
vn -0.0000 0.0000 1.0000
vn 0.5397 -0.8419 0.0000
vn 0.8896 -0.4568 0.0000
vn 0.9642 -0.2653 0.0000
vn 0.2752 0.9614 0.0000
vn 0.9683 -0.2498 0.0000
vn 0.0664 0.9978 0.0000
vn -0.5397 -0.8419 0.0000
vn -0.8896 -0.4568 0.0000
vn -0.9642 -0.2653 0.0000
vn -0.2752 0.9614 0.0000
vn -0.9683 -0.2498 0.0000
vn -0.0664 0.9978 0.0000
usemtl Material.002
s off
f 230//141 228//141 215//141 216//141
f 232//141 230//141 216//141 217//141
f 234//141 232//141 217//141 218//141
f 236//141 234//141 218//141 219//141
f 227//141 236//141 219//141 225//141
f 242//142 220//142 221//142 241//142
f 244//142 222//142 220//142 242//142
f 246//142 223//142 222//142 244//142
f 248//142 224//142 223//142 246//142
f 237//142 238//142 224//142 248//142
f 225//143 219//143 224//143 238//143
f 219//144 218//144 223//144 224//144
f 218//145 217//145 222//145 223//145
f 217//146 216//146 220//146 222//146
f 216//147 215//147 221//147 220//147
f 215//148 228//148 241//148 221//148
f 230//141 229//141 226//141 228//141
f 232//141 231//141 229//141 230//141
f 234//141 233//141 231//141 232//141
f 236//141 235//141 233//141 234//141
f 227//141 225//141 235//141 236//141
f 242//142 241//142 240//142 239//142
f 244//142 242//142 239//142 243//142
f 246//142 244//142 243//142 245//142
f 248//142 246//142 245//142 247//142
f 237//142 248//142 247//142 238//142
f 225//149 238//149 247//149 235//149
f 235//150 247//150 245//150 233//150
f 233//151 245//151 243//151 231//151
f 231//152 243//152 239//152 229//152
f 229//153 239//153 240//153 226//153
f 226//154 240//154 241//154 228//154
o blue_Plane.011
v 0.299682 0.244700 0.000000
v 0.280179 0.169097 0.000000
v 0.393227 0.136733 0.000000
v 0.287456 -0.247681 -0.000000
v 0.219119 -0.380756 -0.000000
v 0.280179 0.169097 0.256247
v 0.299682 0.244700 0.256247
v 0.393227 0.136733 0.256247
v 0.287456 -0.247681 0.256247
v 0.219119 -0.380756 0.256247
v 0.000000 -0.521224 -0.000000
v -0.299682 0.244700 0.000000
v 0.000000 -0.521224 -0.000000
v 0.000000 0.264635 0.000000
v -0.280179 0.169097 0.000000
v 0.000000 0.171509 0.000000
v -0.393227 0.136733 0.000000
v 0.000000 0.086327 0.000000
v -0.287456 -0.247681 -0.000000
v 0.000000 -0.248731 -0.000000
v -0.219119 -0.380756 -0.000000
v 0.000000 -0.381295 -0.000000
v 0.000000 -0.521224 0.256247
v 0.000000 -0.521224 0.256247
v -0.280179 0.169097 0.256247
v -0.299682 0.244700 0.256247
v 0.000000 0.264635 0.256247
v 0.000000 0.171509 0.256247
v -0.393227 0.136733 0.256247
v 0.000000 0.086327 0.256247
v -0.287456 -0.247681 0.256247
v 0.000000 -0.248731 0.256247
v -0.219119 -0.380756 0.256247
v 0.000000 -0.381295 0.256247
vn -0.0000 0.0000 -1.0000
vn 0.0000 -0.0000 1.0000
vn 0.5397 -0.8419 0.0000
vn 0.8896 -0.4568 0.0000
vn 0.9642 -0.2653 0.0000
vn 0.2752 0.9614 -0.0000
vn 0.9683 -0.2498 0.0000
vn 0.0664 0.9978 0.0000
vn -0.5397 -0.8419 0.0000
vn -0.8896 -0.4568 0.0000
vn -0.9642 -0.2653 0.0000
vn -0.2752 0.9614 -0.0000
vn -0.9683 -0.2498 0.0000
vn -0.0664 0.9978 0.0000
usemtl b
s off
f 264//155 262//155 249//155 250//155
f 266//155 264//155 250//155 251//155
f 268//155 266//155 251//155 252//155
f 270//155 268//155 252//155 253//155
f 261//155 270//155 253//155 259//155
f 276//156 254//156 255//156 275//156
f 278//156 256//156 254//156 276//156
f 280//156 257//156 256//156 278//156
f 282//156 258//156 257//156 280//156
f 271//156 272//156 258//156 282//156
f 259//157 253//157 258//157 272//157
f 253//158 252//158 257//158 258//158
f 252//159 251//159 256//159 257//159
f 251//160 250//160 254//160 256//160
f 250//161 249//161 255//161 254//161
f 249//162 262//162 275//162 255//162
f 264//155 263//155 260//155 262//155
f 266//155 265//155 263//155 264//155
f 268//155 267//155 265//155 266//155
f 270//155 269//155 267//155 268//155
f 261//155 259//155 269//155 270//155
f 276//156 275//156 274//156 273//156
f 278//156 276//156 273//156 277//156
f 280//156 278//156 277//156 279//156
f 282//156 280//156 279//156 281//156
f 271//156 282//156 281//156 272//156
f 259//163 272//163 281//163 269//163
f 269//164 281//164 279//164 267//164
f 267//165 279//165 277//165 265//165
f 265//166 277//166 273//166 263//166
f 263//167 273//167 274//167 260//167
f 260//168 274//168 275//168 262//168
